<svg
  xmlns="http://www.w3.org/2000/svg"
  viewBox="0 0 24 24"
  width="24"
  height="24"
  fill="currentColor"
>
  <path d="M7 18c-1.104 0-2 .896-2 2s.896 2 2 2 2-.896 2-2-.896-2-2-2zm10 0c-1.104 0-2 .896-2 2s.896 2 2 2 2-.896 2-2-.896-2-2-2zm-14.293-.293l1.414 1.414 1.415-1.415 2.413 2.413c.09.09.214.146.342.146h12.012c.138 0 .268-.07.342-.188l2.442-4.888c.07-.138.07-.296.004-.432-.066-.136-.2-.225-.354-.225h-13.85l-.55-2h14.065c.138 0 .268-.07.342-.188l2.442-4.888c.07-.138.07-.296.004-.432-.066-.136-.2-.225-.354-.225h-18.19l-1.13-5h-3v2h2.19l3.528 17h-.717zm3.307-2h12.605l-2.206 4.412-11.147-2.946 2.748-1.466z"/>
</svg>